<svg width="34" height="26" viewBox="0 0 34 26" fill="none" xmlns="http://www.w3.org/2000/svg">
<g clip-path="url(#clip0_10_130)">
<path fill-rule="evenodd" clip-rule="evenodd" d="M34 2C33.9214 1.49779 33.6854 1.03351 33.3259 0.674074C32.9665 0.314636 32.5022 0.0786058 32 0H2C1.49779 0.0786058 1.03351 0.314636 0.674072 0.674074C0.314634 1.03351 0.0786058 1.49779 0 2C0.0786058 2.50221 0.314634 2.96649 0.674072 3.32592C1.03351 3.68536 1.49779 3.92139 2 4H32C32.5022 3.92139 32.9665 3.68536 33.3259 3.32592C33.6854 2.96649 33.9214 2.50221 34 2ZM32 11H8C7.49048 11.0913 7.02209 11.3391 6.66003 11.7091C6.29798 12.079 6.06026 12.5526 5.97998 13.064C6.06664 13.5597 6.30927 14.0149 6.67261 14.3631C7.03594 14.7113 7.50102 14.9345 8 15H32C32.5022 14.9214 32.9665 14.6854 33.3259 14.3259C33.6854 13.9665 33.9214 13.5022 34 13C33.9214 12.4978 33.6854 12.0335 33.3259 11.6741C32.9665 11.3146 32.5022 11.0786 32 11ZM32 22H14C13.4978 22.0786 13.0335 22.3146 12.6741 22.6741C12.3146 23.0335 12.0786 23.4978 12 24C12.0786 24.5022 12.3146 24.9665 12.6741 25.3259C13.0335 25.6854 13.4978 25.9214 14 26H32C32.5117 25.9453 32.9893 25.717 33.3531 25.3531C33.717 24.9893 33.9453 24.5117 34 24C33.9693 23.4796 33.7488 22.9885 33.3801 22.6199C33.0115 22.2512 32.5204 22.0307 32 22Z" fill="#FDE500"/>
</g>
<defs>
<clipPath id="clip0_10_130">
<rect width="34" height="26" fill="white"/>
</clipPath>
</defs>
</svg>
