<svg width="34" height="34" viewBox="0 0 34 34" fill="none" xmlns="http://www.w3.org/2000/svg">
<g clip-path="url(#clip0_10_126)">
<path fill-rule="evenodd" clip-rule="evenodd" d="M13.99 8.9502C12.57 8.9002 11.62 10.3299 11.87 12.1899C11.92 12.9895 12.2485 13.7464 12.7983 14.3291C13.3482 14.9118 14.0846 15.2835 14.88 15.3799C16.3 15.4299 17.12 14.2301 16.87 12.3701C16.62 10.5101 15.41 8.9902 13.99 8.9502ZM14.59 19.1899C12.47 19.1599 10.68 20.5198 10.68 22.0898C10.68 23.6998 12.21 25.0298 14.33 25.0298C17.3 25.0298 18.34 23.7799 18.34 22.1699C18.337 21.9813 18.3136 21.7934 18.27 21.6099C18.04 20.6999 17.11 20.2002 15.96 19.4102C15.5181 19.2635 15.0555 19.189 14.59 19.1899ZM17 0C13.6377 0 10.3509 0.99725 7.55529 2.86523C4.75966 4.73322 2.58075 7.3878 1.29406 10.4941C0.00737286 13.6005 -0.329293 17.0187 0.326655 20.3164C0.982604 23.6141 2.60163 26.6435 4.97912 29.021C7.35661 31.3985 10.3858 33.0174 13.6835 33.6733C16.9811 34.3293 20.3993 33.9927 23.5056 32.7061C26.612 31.4194 29.267 29.2405 31.135 26.4448C33.003 23.6492 34 20.3623 34 17C34 12.4913 32.209 8.16712 29.0209 4.979C25.8328 1.79089 21.5087 0 17 0ZM18.99 12.29C18.9685 12.8468 18.8171 13.391 18.548 13.8789C18.2789 14.3668 17.8994 14.7849 17.4399 15.1001C16.5399 15.7901 16.38 16.0799 16.38 16.6699C16.38 17.1699 17.4401 17.92 17.93 18.29C19.6301 19.56 19.97 20.3602 19.97 21.9502C19.97 23.9302 17.83 25.9102 14.34 25.9102C11.28 25.9102 8.68994 24.6702 8.68994 22.6802C8.68994 20.6702 10.83 18.5698 13.9 18.5698C14.23 18.5698 14.54 18.5601 14.85 18.5601C14.632 18.4008 14.4519 18.1953 14.3223 17.9585C14.1926 17.7217 14.1167 17.4594 14.1 17.1899C14.1064 16.8319 14.2027 16.4811 14.38 16.1699C14.21 16.1799 14.04 16.1899 13.86 16.1899C13.3306 16.2187 12.8011 16.136 12.3059 15.9468C11.8107 15.7576 11.3608 15.4662 10.9855 15.0918C10.6101 14.7174 10.3178 14.2682 10.1273 13.7734C9.93687 13.2787 9.85257 12.7496 9.88 12.2202C9.88 10.0602 12.11 8.08984 14.79 8.08984H20.0601L18.88 9.31982H17.5C17.9864 9.64129 18.38 10.0848 18.6415 10.606C18.9029 11.1271 19.0231 11.7079 18.99 12.29ZM26.5601 11.9702H24.13V14.3901H22.91V11.9702H20.48V10.7598H22.91V8.33008H24.13V10.7598H26.5601V11.9702Z" fill="white"/>
</g>
<defs>
<clipPath id="clip0_10_126">
<rect width="34" height="34" fill="white"/>
</clipPath>
</defs>
</svg>
