<svg width="34" height="34" viewBox="0 0 34 34" fill="none" xmlns="http://www.w3.org/2000/svg">
<g clip-path="url(#clip0_10_123)">
<path fill-rule="evenodd" clip-rule="evenodd" d="M17.5402 17.0498L17.8402 16.96C17.6502 16.53 17.4402 16.0999 17.2202 15.6699C14.6705 16.397 12.0316 16.7637 9.38028 16.7598C9.38028 16.8398 9.37027 16.92 9.37027 17C9.36899 18.8782 10.0678 20.6895 11.3302 22.0801C12.7663 19.7445 14.9573 17.9696 17.5402 17.0498ZM16.5902 14.5C15.7266 12.9878 14.7784 11.5256 13.7503 10.1201C12.6849 10.6182 11.75 11.3572 11.0193 12.2788C10.2887 13.2004 9.78223 14.2793 9.54019 15.4302C11.9197 15.4145 14.288 15.1019 16.5902 14.5ZM18.3102 18.2402C15.7833 19.0008 13.6413 20.6956 12.3202 22.98C13.3919 23.8178 14.6681 24.3539 16.0165 24.5332C17.365 24.7125 18.7368 24.5286 19.9903 24C19.6296 22.0264 19.0839 20.0914 18.3603 18.2202C18.3456 18.2311 18.3283 18.238 18.3102 18.2402ZM22.0502 11.29C20.6603 10.0597 18.8665 9.3835 17.0103 9.39014C16.4044 9.39348 15.8006 9.46387 15.2102 9.6001C16.2572 11.0155 17.2093 12.4987 18.0602 14.04C19.634 13.5403 21.0231 12.5829 22.0502 11.29ZM19.7902 17.8701C20.4432 19.6328 20.9386 21.4496 21.2703 23.2998C22.1383 22.722 22.8771 21.9706 23.44 21.0928C24.0028 20.2149 24.3774 19.2302 24.5402 18.2002C22.9991 17.7492 21.3788 17.6366 19.7902 17.8701ZM18.6503 15.1802C18.8303 15.5402 19.0002 15.9098 19.1602 16.2798C19.2102 16.4098 19.2702 16.5399 19.3202 16.6699C21.0961 16.4862 22.8895 16.5705 24.6403 16.9199C24.6293 15.1826 24.0141 13.5033 22.9003 12.1699C21.7796 13.5366 20.3115 14.5766 18.6503 15.1802ZM17.0103 0C13.648 0 10.3612 0.99725 7.56558 2.86523C4.76994 4.73322 2.59092 7.3878 1.30423 10.4941C0.0175363 13.6005 -0.319008 17.0187 0.336941 20.3164C0.99289 23.6141 2.61191 26.6435 4.98941 29.021C7.3669 31.3985 10.3961 33.0174 13.6938 33.6733C16.9914 34.3293 20.4096 33.9927 23.5159 32.7061C26.6222 31.4194 29.2772 29.2405 31.1452 26.4448C33.0132 23.6492 34.0103 20.3623 34.0103 17C34.0103 12.4913 32.2192 8.16712 29.031 4.979C25.8429 1.79089 21.519 0 17.0103 0Z" fill="white"/>
</g>
<defs>
<clipPath id="clip0_10_123">
<rect width="34" height="34" fill="white"/>
</clipPath>
</defs>
</svg>
