<svg width="34" height="34" viewBox="0 0 34 34" fill="none" xmlns="http://www.w3.org/2000/svg">
<g clip-path="url(#clip0_10_124)">
<path fill-rule="evenodd" clip-rule="evenodd" d="M16.99 0.0101348C13.6281 0.0121123 10.3423 1.01058 7.54798 2.87976C4.75366 4.74895 2.5763 7.40459 1.29115 10.5111C0.00599194 13.6176 -0.329186 17.0359 0.327892 20.3329C0.984969 23.6299 2.60479 26.6581 4.98268 29.0345C7.36057 31.411 10.3897 33.0288 13.6871 33.684C16.9845 34.3391 20.4022 34.0022 23.5079 32.7152C26.6137 31.4282 29.2681 29.2489 31.1356 26.4535C33.0032 23.6581 34 20.372 34 17.0101C34 14.7768 33.5599 12.5655 32.705 10.5023C31.85 8.43913 30.5969 6.56445 29.0172 4.98572C27.4376 3.40699 25.5624 2.15489 23.4987 1.30115C21.435 0.447409 19.2233 0.00882106 16.99 0.0101348ZM20.07 17.0101H17.57V25.91H13.86V17.0101H12.09V13.87H13.86V11.83C13.8209 11.3293 13.8909 10.8263 14.0652 10.3553C14.2395 9.88438 14.5138 9.45655 14.8694 9.10193C15.225 8.74732 15.6532 8.47416 16.1246 8.30115C16.5961 8.12815 17.0994 8.05954 17.6 8.09998L20.35 8.11023V11.16H18.36C18.2487 11.1547 18.1376 11.1739 18.0346 11.2162C17.9315 11.2585 17.8389 11.3231 17.7636 11.4052C17.6882 11.4872 17.6317 11.5845 17.5983 11.6908C17.5648 11.7971 17.5552 11.9095 17.57 12.0199V13.87H20.4L20.07 17.0101Z" fill="white"/>
</g>
<defs>
<clipPath id="clip0_10_124">
<rect width="34" height="34" fill="white"/>
</clipPath>
</defs>
</svg>
