<svg width="34" height="34" viewBox="0 0 34 34" fill="none" xmlns="http://www.w3.org/2000/svg">
<g clip-path="url(#clip0_10_125)">
<path fill-rule="evenodd" clip-rule="evenodd" d="M17 0.0198975C13.6377 0.0198975 10.3511 1.01715 7.55542 2.88513C4.75978 4.75312 2.58075 7.40818 1.29406 10.5145C0.00737286 13.6209 -0.329293 17.0391 0.326655 20.3368C0.982604 23.6345 2.60175 26.6634 4.97924 29.0409C7.35674 31.4184 10.3858 33.0373 13.6835 33.6932C16.9811 34.3492 20.3994 34.0126 23.5057 32.726C26.6121 31.4393 29.267 29.2604 31.135 26.4647C33.003 23.6691 34 20.3822 34 17.0199C34 12.5112 32.209 8.18751 29.0209 4.99939C25.8328 1.81127 21.5087 0.0198975 17 0.0198975ZM24.1101 13.39C24.1201 13.54 24.1201 13.7002 24.1201 13.8602C24.1147 15.7297 23.6069 17.5633 22.6499 19.1693C21.6929 20.7753 20.3218 22.0947 18.6802 22.9891C17.0385 23.8836 15.1866 24.32 13.3182 24.2533C11.4499 24.1866 9.63381 23.6194 8.06005 22.6102C8.35166 22.6504 8.64569 22.6701 8.94006 22.6698C10.5899 22.6718 12.1926 22.119 13.4901 21.1C12.726 21.0877 11.9849 20.8359 11.3713 20.3802C10.7578 19.9246 10.3027 19.2879 10.0701 18.5599C10.2934 18.6084 10.5214 18.6322 10.75 18.6302C11.0779 18.634 11.4047 18.5898 11.7201 18.4999C10.8913 18.3359 10.1451 17.8896 9.60888 17.2367C9.07269 16.5838 8.77971 15.7647 8.78002 14.9198V14.87C9.28775 15.156 9.85756 15.3138 10.4401 15.33C9.94017 14.9955 9.53006 14.5436 9.24584 14.0135C8.96163 13.4835 8.812 12.8914 8.81005 12.2899C8.80831 11.6428 8.98104 11.0073 9.31005 10.4501C10.2332 11.5798 11.383 12.5035 12.6852 13.1615C13.9873 13.8195 15.413 14.1969 16.8701 14.2699C16.8012 13.9953 16.7675 13.7132 16.77 13.4301C16.7755 12.6962 17.0003 11.9809 17.4156 11.3759C17.831 10.7709 18.4178 10.3039 19.1006 10.035C19.7834 9.76621 20.531 9.70807 21.2473 9.86755C21.9636 10.027 22.6159 10.3969 23.1201 10.9301C23.9415 10.7725 24.7296 10.4749 25.4501 10.0502C25.171 10.8966 24.5957 11.614 23.8301 12.0702C24.5592 11.9872 25.271 11.7914 25.9401 11.4901C25.4497 12.2287 24.8297 12.8723 24.1101 13.39Z" fill="white"/>
</g>
<defs>
<clipPath id="clip0_10_125">
<rect width="34" height="34" fill="white"/>
</clipPath>
</defs>
</svg>
