<svg width="48" height="48" viewBox="0 0 48 48" fill="none" xmlns="http://www.w3.org/2000/svg">
<g clip-path="url(#clip0_10_272)">
<path fill-rule="evenodd" clip-rule="evenodd" d="M28.3453 20.5201C27.5856 20.5201 27.2061 21.2232 27.2068 22.6295V26.5257C27.2204 26.7504 27.2505 26.9554 27.2505 27.1948C27.2505 27.5174 27.2235 27.8015 27.2068 28.1022V31.5364C27.1842 32.0783 27.2643 32.6196 27.4431 33.1317C27.5154 33.3144 27.6452 33.4687 27.8128 33.5714C27.9803 33.674 28.1767 33.7195 28.3724 33.7009C28.5649 33.7171 28.7569 33.6647 28.9144 33.5529C29.0719 33.4411 29.1848 33.2771 29.233 33.0901C29.3828 32.5107 29.448 31.9128 29.4266 31.3147V22.6857C29.4476 22.1422 29.3822 21.5988 29.233 21.0758C29.171 20.8955 29.0491 20.742 28.8875 20.6409C28.7259 20.5397 28.5345 20.4971 28.3453 20.5201ZM22.2272 15.4833C22.2417 15.2084 22.1466 14.939 21.9629 14.734C21.8668 14.6387 21.7518 14.5646 21.6252 14.5168C21.4986 14.4689 21.3633 14.4483 21.2282 14.4562C21.0756 14.4443 20.9221 14.4654 20.7785 14.5182C20.6348 14.571 20.5042 14.6542 20.3956 14.7621C20.2 14.994 20.1002 15.2918 20.1167 15.5947C20.162 16.0669 20.3037 16.5247 20.533 16.94C20.7623 17.3553 21.0743 17.7191 21.4498 18.009L22.2657 18.7926V17.1213H22.2553L22.2272 15.4833ZM23.9964 0.0098877C19.2521 0.0107109 14.6146 1.41826 10.6703 4.05455C6.72594 6.69084 3.65193 10.4375 1.8369 14.8207C0.021873 19.204 -0.452652 24.027 0.473337 28.6799C1.39933 33.3328 3.68423 37.6067 7.03916 40.9611C10.3941 44.3155 14.6683 46.5998 19.3215 47.5252C23.9746 48.4506 28.7977 47.9754 33.1808 46.1599C37.5639 44.3443 41.3102 41.2699 43.9461 37.3253C46.5819 33.3807 47.9889 28.7431 47.9891 23.999C47.9885 17.6369 45.4609 11.5356 40.962 7.0371C36.4632 2.53856 30.3616 0.0112037 23.9995 0.0109278L23.9964 0.0098877ZM34.3375 30.2054C34.3587 31.5108 34.2658 32.8155 34.0597 34.1047C33.9203 35.0258 33.4955 35.8801 32.8452 36.5471C32.4533 36.8826 31.999 37.1374 31.5085 37.2971C31.018 37.4567 30.5007 37.518 29.9865 37.4775C29.4774 37.5139 28.9664 37.4411 28.4877 37.2639C28.009 37.0868 27.5737 36.8094 27.211 36.4503V41.3071H22.2709V34.3087C22.0794 34.3212 21.9077 34.3555 21.7038 34.3555C19.5392 34.3555 17.9761 33.8189 17.0145 32.7456C16.0529 31.6724 15.5714 29.9425 15.57 27.5559V25.2248H20.253V28.1949C20.253 29.3791 20.6322 29.9709 21.3905 29.9702C21.5544 29.9872 21.72 29.9631 21.8723 29.9001C22.0245 29.837 22.1587 29.737 22.2626 29.6091V26.4528C22.2626 26.4382 22.2564 26.4185 22.2522 26.4039C22.0915 25.9405 21.8517 25.5085 21.5435 25.127C21.2563 24.785 20.7429 24.2529 20.0033 23.5307L17.949 21.4775C17.2164 20.8283 16.6261 20.0345 16.2154 19.1459C15.8047 18.2574 15.5825 17.2934 15.5627 16.3148C15.4462 14.6464 15.9448 12.993 16.9645 11.6673C17.487 11.1161 18.1248 10.6872 18.8324 10.4112C19.54 10.1352 20.2998 10.019 21.0575 10.0709C23.2034 10.0709 24.7484 10.6398 25.6927 11.7776C26.6369 12.9153 27.1087 14.6962 27.108 17.1203H27.0975L27.1278 18.1016C27.4879 17.6589 27.9443 17.3041 28.4622 17.0642C28.9801 16.8244 29.5459 16.7058 30.1165 16.7175C30.7573 16.6522 31.4036 16.7654 31.9839 17.0446C32.5643 17.3238 33.0561 17.758 33.4051 18.2993C34.0939 19.654 34.4148 21.1659 34.3354 22.6836V30.2044L34.3375 30.2054Z" fill="white"/>
</g>
<defs>
<clipPath id="clip0_10_272">
<rect width="48" height="48" fill="white"/>
</clipPath>
</defs>
</svg>
